<?xml version="1.0" encoding="UTF-8"?>
<svg version="1.1" xmlns="http://www.w3.org/2000/svg" width="2000" height="2000">
<path d="M0 0 C310.509375 -0.020625 621.01875 -0.04125 940.9375 -0.0625 C1088.30429321 -0.07615601 1088.30429321 -0.07615601 1238.64819336 -0.09008789 C1358.10656738 -0.09460449 1358.10656738 -0.09460449 1413.93165588 -0.09544373 C1454.43152077 -0.0964108 1494.93138394 -0.1003926 1535.43124836 -0.10612545 C1578.09172868 -0.11214656 1620.752208 -0.11496466 1663.41268875 -0.11356223 C1669.3500621 -0.11336797 1675.28743546 -0.11320941 1681.22480881 -0.11307228 C1682.38852475 -0.1130441 1683.55224068 -0.11301592 1684.75122073 -0.11298688 C1703.07159295 -0.1126346 1721.39196301 -0.11560487 1739.71233463 -0.12001978 C1757.51684288 -0.12424304 1775.3213483 -0.12496218 1793.12585681 -0.12183534 C1803.58271711 -0.12010738 1814.0395685 -0.12117644 1824.49642779 -0.12621637 C1831.43459967 -0.12929102 1838.37276512 -0.12880459 1845.31093679 -0.12530085 C1849.25629969 -0.1234119 1853.20164517 -0.12314731 1857.1470068 -0.12723528 C1861.36747258 -0.13157493 1865.58789646 -0.12832209 1869.80836242 -0.1241985 C1871.66565897 -0.12796181 1871.66565897 -0.12796181 1873.56047667 -0.13180115 C1874.67056726 -0.12944826 1875.78065786 -0.12709536 1876.92438757 -0.12467116 C1877.88800664 -0.12473517 1878.85162571 -0.12479918 1879.84444536 -0.12486512 C1882 0 1882 0 1883 1 C1883.08012173 2.70766894 1883.08857985 4.41873463 1883.06933594 6.12817383 C1883.05878677 7.23813217 1883.04823761 8.34809052 1883.03736877 9.49168396 C1883.01113686 11.33078087 1883.01113686 11.33078087 1882.984375 13.20703125 C1882.96146645 15.12389488 1882.96146645 15.12389488 1882.93809509 17.07948303 C1882.88504903 21.32398322 1882.81822766 25.56822084 1882.75 29.8125 C1882.73306784 30.902673 1882.73306784 30.902673 1882.71579361 32.01486969 C1881.22138355 127.86174592 1872.41491855 223.4018911 1816 501 C1815.79693237 501.74308411 1815.59386475 502.48616821 1815.38464355 503.25177002 C1791.76081842 589.47085876 1761.6601854 674.13869289 1687.15234375 837.72753906 C1685.4197997 841.14417465 1683.71039865 844.57224279 1682 848 C1681.68579102 848.62712891 1681.37158203 849.25425781 1681.04785156 849.90039062 C1679.18038067 853.62780987 1677.32719341 857.36188814 1675.484375 861.1015625 C1669.48620565 873.24035229 1663.20729789 885.18778892 1656.64501953 897.03076172 C1654.90287076 900.17531697 1653.16817366 903.32392031 1651.43359375 906.47265625 C1642.81149632 922.09226644 1634.00500975 937.59806872 1625 953 C1624.44832153 953.94480225 1624.44832153 953.94480225 1623.88549805 954.90869141 C1614.40045484 971.14753523 1604.74200782 987.19507658 1594.35546875 1002.87890625 C1591.2229573 1007.62166188 1588.24453881 1012.44395923 1585.3125 1017.3125 C1579.82076739 1026.40146807 1573.95793249 1035.21154919 1568 1044 C1567.02836914 1045.43786865 1567.02836914 1045.43786865 1566.03710938 1046.90478516 C1540.369226 1084.88338953 1513.83556034 1122.42536853 1485.31933594 1158.33349609 C1483.9382195 1160.07803733 1482.5657182 1161.82906578 1481.1953125 1163.58203125 C1475.55342171 1170.79761006 1469.82377501 1177.92976955 1464 1185 C1462.54155659 1186.79157706 1461.08322483 1188.58324502 1459.625 1190.375 C1455.82895506 1195.01754973 1451.96604477 1199.59917048 1448.08203125 1204.16796875 C1445.2217818 1207.5381234 1442.40758766 1210.9400841 1439.625 1214.375 C1431.70246432 1224.10069344 1423.39837479 1233.51397546 1414.9765625 1242.80859375 C1413.13043439 1244.85538796 1411.31006716 1246.92131557 1409.5 1249 C1406.10505061 1252.89790485 1402.64334116 1256.73347057 1399.1796875 1260.5703125 C1397.30854906 1262.6560618 1395.46075169 1264.75817628 1393.625 1266.875 C1388.85413116 1272.34457732 1383.92676243 1277.67126958 1379 1283 C1378.43796875 1283.60859863 1377.8759375 1284.21719727 1377.296875 1284.84423828 C1370.78653664 1291.88570214 1364.25927245 1298.87516111 1357.37890625 1305.55859375 C1355.45441012 1307.53365135 1353.6617724 1309.53490616 1351.86816406 1311.62524414 C1347.99038837 1316.06995916 1343.89699788 1320.26455944 1339.73046875 1324.4375 C1338.96825516 1325.20304199 1338.20604156 1325.96858398 1337.42073059 1326.75732422 C1335.82451788 1328.35856229 1334.22698208 1329.95848243 1332.62817383 1331.55712891 C1330.17175823 1334.01575594 1327.7234796 1336.48230396 1325.27539062 1338.94921875 C1323.71923871 1340.50830044 1322.16261516 1342.06691157 1320.60546875 1343.625 C1319.87216843 1344.36548584 1319.1388681 1345.10597168 1318.38334656 1345.86889648 C1317.70536514 1346.54380127 1317.02738373 1347.21870605 1316.32885742 1347.9140625 C1315.43453255 1348.8105249 1315.43453255 1348.8105249 1314.5221405 1349.72509766 C1313 1351 1313 1351 1311 1351 C1310.7421875 1351.59554688 1310.484375 1352.19109375 1310.21875 1352.8046875 C1308.89188606 1355.1947437 1307.60890657 1356.40503112 1305.5 1358.125 C1302.1647454 1360.9406316 1299.06295172 1363.88978051 1296 1367 C1292.41510388 1370.62881522 1288.737064 1374.0406286 1284.86328125 1377.35546875 C1282.99548207 1379.00398752 1281.24544376 1380.72303581 1279.5 1382.5 C1276.59663868 1385.44882783 1273.55745115 1388.1613211 1270.421875 1390.859375 C1267.90420554 1393.08466994 1265.45333273 1395.36994598 1263.00390625 1397.66967773 C1257.42289203 1402.90937993 1251.75765429 1407.90540148 1245.77734375 1412.69140625 C1242.57556812 1415.35279781 1239.53769562 1418.15466505 1236.5 1421 C1231.69594288 1425.49840872 1226.7516029 1429.72914782 1221.6171875 1433.8515625 C1218.98158387 1436.01511772 1216.45576625 1438.2638956 1213.9375 1440.5625 C1209.92924038 1444.21039558 1205.79660268 1447.63153757 1201.54296875 1450.98828125 C1198.96429192 1453.02824833 1196.41671468 1455.10169827 1193.875 1457.1875 C1192.9571875 1457.93902344 1192.039375 1458.69054688 1191.09375 1459.46484375 C1189.47065354 1460.79488113 1187.84773646 1462.1251395 1186.2265625 1463.45751953 C1178.02544446 1470.1932407 1169.73935391 1476.78471248 1161.28222656 1483.1965332 C1156.66653604 1486.70258136 1152.1279807 1490.28825102 1147.625 1493.9375 C1139.75798735 1500.2905353 1131.61644515 1506.25130744 1123.44824219 1512.20898438 C1121.01364443 1513.9900184 1118.5874781 1515.78191174 1116.1640625 1517.578125 C1106.57743711 1524.6820027 1096.91628898 1531.6612185 1087.13818359 1538.49902344 C1085.03990349 1539.97198828 1082.95071041 1541.45702107 1080.86328125 1542.9453125 C1056.62468495 1560.15858129 1031.76745694 1576.64548879 1006.55761719 1592.40039062 C1003.77608878 1594.14004069 1001.00122348 1595.89004445 998.2265625 1597.640625 C948.57317987 1628.90266932 897.26176422 1657.35260307 845 1684 C844.30801514 1684.35318298 843.61603027 1684.70636597 842.90307617 1685.07025146 C821.53115012 1695.97109593 799.98711792 1706.3481801 778.05999756 1716.08392334 C775.98472718 1717.00679179 773.91128761 1717.93365648 771.83837891 1718.86181641 C725.93003064 1739.41183482 679.34236761 1758.02350402 632 1775 C631.13312561 1775.31151001 630.26625122 1775.62302002 629.37310791 1775.94396973 C522.27175146 1814.40982671 411.18986533 1842.16796649 68.5625 1882.1875 C67.01666733 1882.25195816 67.01666733 1882.25195816 65.43960571 1882.31771851 C43.60900514 1883.21063622 21.87822499 1883 0 1883 C0 1261.61 0 640.22 0 0 Z " fill="#7DD856" transform="translate(60,57)"/>
<path d="M0 0 C0 221.76 0 443.52 0 672 C-166.0415625 672.0309375 -166.0415625 672.0309375 -335.4375 672.0625 C-370.45931396 672.071604 -405.48112793 672.08070801 -441.56420898 672.09008789 C-484.15246582 672.09460449 -484.15246582 672.09460449 -504.05555725 672.09544373 C-518.95420814 672.09644158 -533.85285454 672.10076544 -548.75150417 672.10667343 C-563.92463539 672.11260935 -579.09776375 672.11484059 -594.27089608 672.11344495 C-603.30587136 672.11272441 -612.34083604 672.114746 -621.37580937 672.1208076 C-627.32881089 672.12453254 -633.2818053 672.12468777 -639.23480729 672.12183534 C-642.63351579 672.12031177 -646.03220385 672.12043397 -649.43091023 672.12488258 C-653.08652407 672.12884247 -656.74208365 672.12676556 -660.3976965 672.12304783 C-661.47163146 672.12567485 -662.54556642 672.12830188 -663.65204486 672.13100851 C-664.61606891 672.12876121 -665.58009296 672.1265139 -666.57332987 672.1241985 C-667.82905188 672.12443247 -667.82905188 672.12443247 -669.11014202 672.12467116 C-671 672 -671 672 -672 671 C-672.09665358 668.32965958 -672.12839419 665.68982162 -672.109375 663.01953125 C-672.1058905 662.20893753 -672.10240601 661.39834381 -672.09881592 660.56318665 C-672.03701658 652.25927753 -671.70899905 643.97803031 -671.25 635.6875 C-671.20709839 634.90408234 -671.16419678 634.12066467 -671.11999512 633.31350708 C-666.28452735 547.06911522 -644.81340395 462.33524648 -550 285 C-549.40171387 284.14664062 -548.80342773 283.29328125 -548.18701172 282.4140625 C-541.22470358 272.5282561 -533.93657918 262.9629722 -526.29443359 253.59423828 C-524.50715972 251.39301263 -522.75577059 249.16388952 -521 246.9375 C-513.31775929 237.34662805 -505.21877659 228.1100651 -496.86523438 219.10083008 C-495.06267054 217.15478562 -493.27346555 215.19901627 -491.49121094 213.23413086 C-485.28064164 206.38916761 -478.90443262 199.74701359 -472.35571289 193.2253418 C-470.79910611 191.67415273 -469.24799829 190.11760608 -467.69726562 188.56054688 C-462.83408533 183.6941335 -457.9279038 178.92611944 -452.6965332 174.45141602 C-450.30333789 172.40399248 -448.00071905 170.26193953 -445.6875 168.125 C-441.27646827 164.10619407 -436.76264642 160.27134676 -432.1171875 156.52734375 C-429.78762058 154.64952084 -427.48742603 152.73975883 -425.1953125 150.81640625 C-414.77522015 142.09427487 -404.05420788 133.90125346 -393 126 C-392.11038574 125.36304199 -391.22077148 124.72608398 -390.30419922 124.06982422 C-369.31049484 109.10068913 -347.55561686 95.48504305 -325 83 C-323.97519531 82.42813965 -322.95039062 81.8562793 -321.89453125 81.26708984 C-295.24397867 66.44928709 -267.56559055 53.68887324 -239 43 C-238.38505676 42.7698822 -237.77011353 42.5397644 -237.13653564 42.30267334 C-177.46154086 20.03833934 -114.89715646 6.09493901 -51.375 1.125 C-50.62654816 1.06333649 -49.87809631 1.00167297 -49.10696411 0.93814087 C-32.71033082 -0.37840693 -16.51106017 0 0 0 Z " fill="#FFB858" transform="translate(1942,1268)"/>
</svg>
